<?xml version="1.0" standalone="no"?>
<!DOCTYPE svg PUBLIC "-//W3C//DTD SVG 20010904//EN"
 "http://www.w3.org/TR/2001/REC-SVG-20010904/DTD/svg10.dtd">
<svg version="1.0" xmlns="http://www.w3.org/2000/svg"
 width="260.000000pt" height="260.000000pt" viewBox="0 0 260.000000 260.000000"
 preserveAspectRatio="xMidYMid meet">
<metadata>
Created by potrace 1.14, written by Peter Selinger 2001-2017
</metadata>
<g transform="translate(0.000000,260.000000) scale(0.100000,-0.100000)"
fill="#000000" stroke="none">
<path d="M132 1298 l3 -1173 1170 0 1170 0 0 1170 0 1170 -1173 3 -1172 2 2
-1172z m1062 502 c0 -25 -10 -89 -21 -142 -20 -90 -20 -103 -7 -165 14 -67 14
-67 -11 -93 -14 -14 -25 -38 -25 -52 0 -15 -5 -30 -11 -34 -22 -13 -48 33 -79
141 -50 177 -103 230 -230 230 -78 0 -119 -21 -167 -83 -60 -79 -75 -151 -80
-377 -3 -113 -10 -205 -15 -212 -8 -10 3 -19 43 -37 62 -28 156 -46 246 -46
56 0 64 3 80 26 26 40 51 122 45 150 -5 26 -49 55 -105 68 -33 8 -44 30 -27
51 19 23 396 22 428 -1 12 -8 22 -18 22 -22 0 -5 -25 -20 -55 -35 -57 -28 -77
-55 -89 -119 -5 -26 -2 -47 9 -68 14 -26 14 -40 5 -86 -6 -30 -15 -54 -19 -54
-4 0 -16 9 -26 20 -19 20 -19 20 -55 -15 -42 -41 -63 -44 -78 -11 -10 22 -14
23 -49 15 -21 -5 -110 -9 -199 -9 -144 0 -163 2 -178 19 -20 22 -78 48 -128
56 -28 4 -38 11 -38 24 0 10 -22 55 -50 100 -51 84 -60 123 -39 163 9 17 8 24
-4 33 -15 10 -15 14 -2 31 8 10 15 29 15 42 0 19 -3 21 -19 12 -30 -16 -31
-14 -31 48 0 69 14 99 60 130 l35 23 5 97 c5 90 6 97 27 100 16 2 23 11 25 35
4 40 38 53 38 14 0 -38 21 -49 71 -38 24 6 140 11 257 11 l213 0 47 39 c55 47
107 72 142 68 23 -2 25 -6 24 -47z m1070 0 c0 -25 -10 -89 -21 -142 -20 -90
-20 -103 -7 -165 14 -67 14 -67 -11 -93 -14 -14 -25 -38 -25 -52 0 -15 -5 -30
-11 -34 -22 -13 -48 33 -79 141 -50 177 -103 230 -230 230 -78 0 -119 -21
-167 -83 -60 -79 -75 -151 -80 -377 -3 -113 -10 -205 -15 -212 -8 -10 3 -19
43 -37 62 -28 156 -46 246 -46 56 0 64 3 80 26 26 40 51 122 45 150 -5 26 -49
55 -105 68 -33 8 -44 30 -27 51 19 23 396 22 428 -1 12 -8 22 -18 22 -22 0 -5
-25 -20 -55 -35 -57 -28 -77 -55 -89 -119 -5 -26 -2 -47 9 -68 14 -26 14 -40
5 -86 -6 -30 -15 -54 -19 -54 -4 0 -16 9 -26 20 -19 20 -19 20 -55 -15 -42
-41 -63 -44 -78 -11 -10 22 -14 23 -49 15 -21 -5 -110 -9 -199 -9 -144 0 -163
2 -178 19 -20 22 -78 48 -128 56 -28 4 -38 11 -38 24 0 10 -22 55 -50 100 -51
84 -60 123 -39 163 9 17 8 24 -4 33 -15 10 -15 14 -2 31 8 10 15 29 15 42 0
19 -3 21 -19 12 -30 -16 -31 -14 -31 48 0 69 14 99 60 130 l35 23 5 97 c5 90
6 97 27 100 16 2 23 11 25 35 4 40 38 53 38 14 0 -38 21 -49 71 -38 24 6 140
11 257 11 l213 0 47 39 c55 47 107 72 142 68 23 -2 25 -6 24 -47z m-1934 -217
c0 -5 -4 -15 -10 -23 -11 -18 -25 -7 -17 15 6 15 27 21 27 8z m1070 0 c0 -5
-4 -15 -10 -23 -11 -18 -25 -7 -17 15 6 15 27 21 27 8z"/>
<path d="M403 1554 c-8 -21 13 -42 28 -27 13 13 5 43 -11 43 -6 0 -13 -7 -17
-16z"/>
<path d="M1120 1440 c0 -5 5 -10 10 -10 6 0 10 5 10 10 0 6 -4 10 -10 10 -5 0
-10 -4 -10 -10z"/>
<path d="M360 1260 c0 -11 7 -20 15 -20 8 0 15 9 15 20 0 11 -7 20 -15 20 -8
0 -15 -9 -15 -20z"/>
<path d="M430 1120 c0 -11 7 -20 15 -20 8 0 15 9 15 20 0 11 -7 20 -15 20 -8
0 -15 -9 -15 -20z"/>
<path d="M505 1090 c-3 -16 -2 -37 4 -47 8 -14 10 -8 11 30 0 54 -5 60 -15 17z"/>
<path d="M1060 1002 c0 -23 5 -42 10 -42 7 0 8 14 4 38 -9 51 -14 53 -14 4z"/>
<path d="M1000 949 c0 -24 23 -21 28 4 2 10 -3 17 -12 17 -10 0 -16 -9 -16
-21z"/>
<path d="M1473 1554 c-8 -21 13 -42 28 -27 13 13 5 43 -11 43 -6 0 -13 -7 -17
-16z"/>
<path d="M2190 1440 c0 -5 5 -10 10 -10 6 0 10 5 10 10 0 6 -4 10 -10 10 -5 0
-10 -4 -10 -10z"/>
<path d="M1430 1260 c0 -11 7 -20 15 -20 8 0 15 9 15 20 0 11 -7 20 -15 20 -8
0 -15 -9 -15 -20z"/>
<path d="M1500 1120 c0 -11 7 -20 15 -20 8 0 15 9 15 20 0 11 -7 20 -15 20 -8
0 -15 -9 -15 -20z"/>
<path d="M1575 1090 c-3 -16 -2 -37 4 -47 8 -14 10 -8 11 30 0 54 -5 60 -15
17z"/>
<path d="M2130 1002 c0 -23 5 -42 10 -42 7 0 8 14 4 38 -9 51 -14 53 -14 4z"/>
<path d="M2070 949 c0 -24 23 -21 28 4 2 10 -3 17 -12 17 -10 0 -16 -9 -16
-21z"/>
</g>
</svg>
